<svg xmlns="http://www.w3.org/2000/svg" viewBox="0 0 64 64" role="img" aria-label="ai-tracker">
  <rect width="64" height="64" rx="14" fill="#0f6b5f"/>
  <path d="M16 39.5c0-5.7 3.8-9 9.7-9h5.6v-1.1c0-3.1-1.8-4.8-5.2-4.8-2.7 0-4.9 1-6.8 2.8l-2.4-4.2c2.6-2.4 6-3.7 10.1-3.7 6.7 0 10.5 3.5 10.5 9.7V45h-5.8v-3.1c-1.8 2.4-4.5 3.7-7.8 3.7-4.7 0-7.9-2.3-7.9-6.1Zm15.3-2.5v-2.3h-4.7c-3 0-4.4 1.3-4.4 3.3 0 1.9 1.5 3 3.9 3 2.5 0 4.5-1.4 5.2-4Z" fill="#fff"/>
  <path d="M43.1 19.9h6.1V45h-6.1V19.9Zm-.3-7.1c0-2 1.6-3.5 3.5-3.5 2 0 3.6 1.5 3.6 3.5s-1.6 3.5-3.6 3.5c-1.9 0-3.5-1.5-3.5-3.5Z" fill="#dff3ee"/>
</svg>
